<svg id="Layer_1" data-name="Layer 1" xmlns="http://www.w3.org/2000/svg" viewBox="0 0 512 410.29"><defs><style>.cls-1{fill:#61b3ea;}.cls-2{fill:#455261;}</style></defs><title>duck</title><path class="cls-1" d="M82.51,168.58C71.6,179.49,44.68,202.85,11,206.87a12.52,12.52,0,0,0-7.73,20.92c1.59,1.73,37.46,39.74,105.63,39.74q4.06,0,8.28-.19c.53.56,1,1.12,1.58,1.67a114.37,114.37,0,0,0,84,192.14H358.27c50.33,0,91.08-19.93,117.84-57.64C499.59,370.42,512,324.2,512,269.84V251.2a36.67,36.67,0,0,0-19-32.14,36,36,0,0,0-37.12,1.15c-32.92,20.9-80,30.24-137,27.37a128.29,128.29,0,1,0-236.37-79Zm1.41,32.22a128.21,128.21,0,0,0,14.7,41.34c-25.53-1.7-44.75-9.53-57.59-16.93C58.18,219,72.73,209.62,83.93,200.79ZM210.37,75.91a103.21,103.21,0,0,1,75.31,173.83,12.52,12.52,0,0,0,7.87,21c73,7.43,133.73-2.74,175.74-29.4a11.2,11.2,0,0,1,11.63-.35,11.4,11.4,0,0,1,6,10.19v18.65C487,319,476.14,360.19,455.69,389c-22.17,31.24-54.95,47.09-97.41,47.09H202.76A89.22,89.22,0,0,1,145.2,278.4a12.52,12.52,0,0,0-.14-19.29A103.7,103.7,0,0,1,132,246.32h0a103.13,103.13,0,0,1-24.85-67.17c0-1.63,0-3.11.11-4.62A103,103,0,0,1,210.37,75.91Z" transform="translate(0 -50.86)"/><path class="cls-2" d="M292.39,399.78h10.43a12.52,12.52,0,0,0,0-25H292.39a12.52,12.52,0,1,0,0,25Z" transform="translate(0 -50.86)"/><path class="cls-2" d="M353.08,395.23a12.53,12.53,0,0,0,3.46-.49,130.29,130.29,0,0,0,72.56-53.34,12.52,12.52,0,0,0-20.89-13.82,105.22,105.22,0,0,1-58.59,43.09,12.53,12.53,0,0,0,3.45,24.56Z" transform="translate(0 -50.86)"/><path class="cls-2" d="M179.09,182.84a12.52,12.52,0,0,0,12.52-12.52V138.89a12.52,12.52,0,1,0-25,0v31.43A12.52,12.52,0,0,0,179.09,182.84Z" transform="translate(0 -50.86)"/></svg>