<svg id="Capa_1" data-name="Capa 1" xmlns="http://www.w3.org/2000/svg" viewBox="0 0 487.52 511.34"><defs><style>.cls-1{fill:#61b3ea;}</style></defs><title>sun</title><path class="cls-1" d="M497.78,326.33l-51.39-70.81,51.39-70.8a9.08,9.08,0,0,0,1.14-8.28,7.9,7.9,0,0,0-5.71-5.71l-83.36-27.41V56a8.93,8.93,0,0,0-3.72-7.42q-4.28-2.85-8.27-1.14L314.48,74.23,263.09,3.43a9.75,9.75,0,0,0-14.85,0L196.85,74.23,113.48,47.4q-4-1.71-8.28,1.14A8.94,8.94,0,0,0,101.49,56v87.37L18.13,170.73a7.89,7.89,0,0,0-5.71,5.71,9.07,9.07,0,0,0,1.14,8.28L65,255.53,13.56,326.33q-2.57,3.42-1.14,8.28a7.92,7.92,0,0,0,5.71,5.71l83.37,27.41V455.1a8.94,8.94,0,0,0,3.71,7.42q4.28,2.85,8.28,1.14l83.37-26.84,51.39,70.8a9.28,9.28,0,0,0,14.85,0l51.39-70.8,83.37,26.84q4,1.71,8.27-1.14a8.94,8.94,0,0,0,3.72-7.42V367.73l83.36-27.41a7.92,7.92,0,0,0,5.71-5.71Q500.35,329.76,497.78,326.33Zm-90.65-7A162.1,162.1,0,0,1,319.49,407a163.22,163.22,0,0,1-127.62,0,162.12,162.12,0,0,1-87.65-87.65,163.23,163.23,0,0,1,0-127.62,162.1,162.1,0,0,1,87.65-87.65,163.22,163.22,0,0,1,127.62,0,162.08,162.08,0,0,1,87.65,87.65,163.22,163.22,0,0,1,0,127.62Z" transform="translate(-11.91)"/></svg>