<svg id="Capa_1" data-name="Capa 1" xmlns="http://www.w3.org/2000/svg" viewBox="0 0 273.07 512"><defs><style>.cls-1{fill:#61b3ea;}.cls-2{fill:#f3f3f3;}.cls-3{fill:#455261;}</style></defs><title>battery</title><path class="cls-1" d="M363,34.13H307.2V0H204.8V34.13H149a29.59,29.59,0,0,0-29.56,29.56V482.44A29.59,29.59,0,0,0,149,512H363a29.6,29.6,0,0,0,29.57-29.56V63.69A29.59,29.59,0,0,0,363,34.13ZM221.87,17.07h68.27V34.13H221.87Zm153.6,465.37A12.5,12.5,0,0,1,363,494.93H149a12.5,12.5,0,0,1-12.49-12.49V63.69A12.5,12.5,0,0,1,149,51.2H363a12.5,12.5,0,0,1,12.49,12.49Z" transform="translate(-119.47)"/><path class="cls-2" d="M290.13,146A9,9,0,0,0,285,137.4l-6.66-2.72-4.22,5.21L180.94,290.13H230.4l0,109.94a9.07,9.07,0,0,0,4.95,8.56l6.78,3,4.32-5.43,83.37-158.74H290.13Zm11.49,118.55-54.14,103.3,0-94.76H211.59l61.47-99.23v90.69Z" transform="translate(-119.47)"/><polygon class="cls-3" points="153.6 173.84 92.13 273.07 128 273.07 128.02 367.83 182.16 264.53 153.6 264.53 153.6 173.84"/></svg>