<svg id="Capa_1" data-name="Capa 1" xmlns="http://www.w3.org/2000/svg" viewBox="0 0 57.99 58.15"><defs><style>.cls-1{fill:#61b3ea;}.cls-2{fill:#f3f3f3;}</style></defs><title>reminder</title><path class="cls-1" d="M40.08,29.15H32.93a4,4,0,0,0-2.86-2.86V16.15a1,1,0,0,0-2,0V26.3a4,4,0,1,0,4.86,4.86h7.14a1,1,0,0,0,0-2Zm-11,3a2,2,0,1,1,2-2A2,2,0,0,1,29.08,32.15Z" transform="translate(-0.08 0)"/><path class="cls-1" d="M50.19,9.76l4.1,4.1a1,1,0,0,0,1.41,0A8.12,8.12,0,0,0,44.21,2.38a1,1,0,0,0,0,1.41l4.56,4.56L47.08,10a26.93,26.93,0,0,0-36,0l-1.7-1.7,4.56-4.56a1,1,0,0,0,0-1.41A8.12,8.12,0,0,0,2.45,13.86a1,1,0,0,0,1.41,0L8,9.76l1.68,1.68a27,27,0,0,0,5.76,42l-3,3a1,1,0,1,0,1.41,1.41l3.45-3.45a26.94,26.94,0,0,0,23.69,0l3.45,3.45a1,1,0,0,0,1.41-1.41l-3-3a27,27,0,0,0,5.76-42Zm4.1-6a6.13,6.13,0,0,1,.65,7.89L46.39,3.14A6.13,6.13,0,0,1,54.28,3.79ZM3.22,11.68a6.12,6.12,0,0,1,8.54-8.54ZM29.08,55.15a25,25,0,1,1,25-25A25,25,0,0,1,29.08,55.15Z" transform="translate(-0.08 0)"/><path class="cls-1" d="M29.08,10a1,1,0,0,0,1-1V8a1,1,0,0,0-2,0V9A1,1,0,0,0,29.08,10Z" transform="translate(-0.08 0)"/><path class="cls-1" d="M29.08,50a1,1,0,0,0-1,1v1a1,1,0,0,0,2,0V51A1,1,0,0,0,29.08,50Z" transform="translate(-0.08 0)"/><path class="cls-1" d="M50.08,31h1a1,1,0,0,0,0-2h-1a1,1,0,0,0,0,2Z" transform="translate(-0.08 0)"/><path class="cls-1" d="M8.08,29h-1a1,1,0,0,0,0,2h1a1,1,0,0,0,0-2Z" transform="translate(-0.08 0)"/><path class="cls-1" d="M43.93,13.77l-.71.71a1,1,0,1,0,1.41,1.41l.71-.71a1,1,0,1,0-1.41-1.41Z" transform="translate(-0.08 0)"/><path class="cls-1" d="M13.52,44.17l-.71.71a1,1,0,1,0,1.41,1.41l.71-.71a1,1,0,0,0-1.41-1.41Z" transform="translate(-0.08 0)"/><path class="cls-1" d="M44.63,44.17a1,1,0,0,0-1.41,1.41l.71.71a1,1,0,1,0,1.41-1.41Z" transform="translate(-0.08 0)"/><path class="cls-1" d="M14.23,13.77a1,1,0,0,0-1.41,1.41l.71.71a1,1,0,1,0,1.41-1.41Z" transform="translate(-0.08 0)"/><circle class="cls-2" cx="29" cy="30.13" r="2"/></svg>