<svg id="Layer_1" data-name="Layer 1" xmlns="http://www.w3.org/2000/svg" viewBox="0 0 62.4 72.02"><defs><style>.cls-1{fill:#61b3ea;}</style></defs><title>waterproof</title><path class="cls-1" d="M50.72,14a.74.74,0,0,0-.66.42C45.5,22.93,34.22,27.49,21.14,27.07a.82.82,0,0,0-.84.84A91.14,91.14,0,0,0,22.76,50c-2.16,3-4,6.06-4,10.14A12.57,12.57,0,0,0,31.34,72.67a11.3,11.3,0,0,0,2.52-.24,64.84,64.84,0,0,0,16.5,13.44.63.63,0,0,0,.78,0c7.08-4.26,14.64-9.72,20.34-18.66s9.72-21.3,9.72-39.3a.82.82,0,0,0-.84-.84C67.28,27.49,56,22.93,51.44,14.41a.83.83,0,0,0-.72-.42Zm.06,2.22c5.16,8.34,16.2,12.66,28.8,12.48-.12,17.28-4,29.16-9.42,37.68S57.62,80.05,50.78,84.25A62.2,62.2,0,0,1,35.6,72a12.58,12.58,0,0,0,8.28-11.82c0-4.62-2.28-7.92-4.86-11.34s-5.4-7.08-6.9-12.72a.91.91,0,0,0-.78-.6.83.83,0,0,0-.78.6C29.12,41.41,26.48,45,24,48.25a92.11,92.11,0,0,1-2.1-19.56c12.6.18,23.64-4.14,28.86-12.48Zm-.06,3.54a.79.79,0,0,0-.78.78V79.45a.78.78,0,0,0,1.2.66C57,76.57,63.26,72,68,64.45s8-17.88,8-32.94a.81.81,0,0,0-.78-.84c-10.8.36-20-3.48-23.82-10.5a.73.73,0,0,0-.72-.42Zm.84,3.42c4.62,6.12,13.2,9.24,22.86,9.12-.12,14.4-3.24,24.24-7.74,31.32-4.26,6.72-9.78,11-15.12,14.34V23.17ZM31.34,38.71a40.57,40.57,0,0,0,6.42,11c2.52,3.42,4.56,6.24,4.56,10.38a11,11,0,1,1-21.9,0c0-4.14,2-7,4.56-10.38a42.14,42.14,0,0,0,6.36-11Z" transform="translate(-18.8 -13.99)"/></svg>